<svg width="21" height="20" viewBox="0 0 21 20" fill="none" xmlns="http://www.w3.org/2000/svg">
<path d="M5.50049 12.4658H15.5005C15.9752 12.466 16.3667 12.8583 16.3667 13.333V16.666C16.3667 17.1407 15.9752 17.532 15.5005 17.5322H5.50049C5.02565 17.5322 4.6333 17.1409 4.6333 16.666V13.333C4.6333 12.8582 5.02565 12.4658 5.50049 12.4658ZM6.3335 12.5322C5.43333 12.5322 4.69971 13.2659 4.69971 14.166C4.69971 15.0662 5.43333 15.7998 6.3335 15.7998H14.6665C15.5667 15.7998 16.3003 15.0662 16.3003 14.166C16.3003 13.2659 15.5667 12.5322 14.6665 12.5322H6.3335ZM10.5005 2.46582C12.1553 2.46598 13.5432 3.67173 13.8198 5.24316V5.24414C13.8553 5.44895 13.8019 5.67611 13.6655 5.86719L10.5327 10.251C10.5267 10.2594 10.522 10.2617 10.52 10.2627C10.5167 10.2643 10.5113 10.2656 10.5044 10.2656C10.4975 10.2656 10.4922 10.2643 10.4888 10.2627C10.4867 10.2617 10.4821 10.2594 10.4761 10.251L7.34229 5.86719C7.20942 5.68087 7.15294 5.45433 7.18115 5.24414C7.45747 3.6722 8.84528 2.46582 10.5005 2.46582Z" stroke="#CBD5E2" stroke-width="1.6"/>
</svg>
