<svg width="21" height="20" viewBox="0 0 21 20" fill="none" xmlns="http://www.w3.org/2000/svg">
<path d="M18.7123 18H10.7123L12.7123 16H18.7123V18Z" fill="#CBD5E2"/>
<path fill-rule="evenodd" clip-rule="evenodd" d="M15.0004 2.5C15.4446 2.50011 15.8332 2.66685 16.1664 3L18.3334 5.16699C18.6665 5.50019 18.8333 5.8888 18.8334 6.33301C18.8334 6.77743 18.6667 7.16668 18.3334 7.5L8.83342 17C8.50008 17.3333 8.11087 17.5 7.66642 17.5C7.22216 17.4999 6.83364 17.3331 6.50041 17L6.45842 16.958L6.39592 17.0205C6.24316 17.1733 6.06601 17.2917 5.86467 17.375C5.66328 17.4583 5.45115 17.5 5.22892 17.5H2.75041C2.55596 17.5 2.42337 17.4167 2.35392 17.25C2.28454 17.0834 2.31963 16.9308 2.45842 16.792L4.37541 14.875L4.33342 14.833C4.00023 14.4998 3.8335 14.1113 3.83342 13.667C3.83342 13.2225 4.00008 12.8333 4.33342 12.5L13.8334 3C14.1667 2.66671 14.556 2.5 15.0004 2.5ZM5.50041 13.667L7.66642 15.833L11.8334 11.667L9.66642 9.5L5.50041 13.667ZM10.8539 8.3125L13.0209 10.4795L17.1664 6.33301L15.0004 4.16699L10.8539 8.3125Z" fill="#CBD5E2"/>
</svg>
