<svg xmlns="http://www.w3.org/2000/svg" width="20" height="20" viewBox="0 0 20 20" fill="none">
  <path d="M13.7502 9.16683C14.3335 9.16683 14.8918 9.25016 15.4168 9.40849V8.3335C15.4168 7.41683 14.6668 6.66683 13.7502 6.66683H12.9168V5.00016C12.9168 2.70016 11.0502 0.833496 8.75016 0.833496C6.45016 0.833496 4.5835 2.70016 4.5835 5.00016V6.66683H3.75016C2.8335 6.66683 2.0835 7.41683 2.0835 8.3335V16.6668C2.0835 17.5835 2.8335 18.3335 3.75016 18.3335H8.96683C8.3085 17.3918 7.91683 16.2418 7.91683 15.0002C7.91683 11.7752 10.5252 9.16683 13.7502 9.16683ZM6.16683 5.00016C6.16683 3.57516 7.32516 2.41683 8.75016 2.41683C10.1752 2.41683 11.3335 3.57516 11.3335 5.00016V6.66683H6.16683V5.00016Z" fill="#6A6A6A"/>
  <path d="M13.7502 10.8335C11.4502 10.8335 9.5835 12.7002 9.5835 15.0002C9.5835 17.3002 11.4502 19.1668 13.7502 19.1668C16.0502 19.1668 17.9168 17.3002 17.9168 15.0002C17.9168 12.7002 16.0502 10.8335 13.7502 10.8335ZM13.7502 12.5002C14.4418 12.5002 15.0002 13.0585 15.0002 13.7502C15.0002 14.4418 14.4418 15.0002 13.7502 15.0002C13.0585 15.0002 12.5002 14.4418 12.5002 13.7502C12.5002 13.0585 13.0585 12.5002 13.7502 12.5002ZM13.7502 17.5002C12.8918 17.5002 12.1335 17.0668 11.6835 16.4002C12.2918 16.0502 12.9918 15.8335 13.7502 15.8335C14.5085 15.8335 15.2085 16.0502 15.8168 16.4002C15.3668 17.0668 14.6085 17.5002 13.7502 17.5002Z" fill="#6A6A6A"/>
</svg>