<svg xmlns="http://www.w3.org/2000/svg" width="18" height="17" viewBox="0 0 18 17" fill="none">
  <g clip-path="url(#clip0_851_482)">
    <path d="M14.3927 7.92805C12.9467 8.61935 11.0316 8.99985 9.00037 8.99985C6.96915 8.99985 5.05399 8.61935 3.60836 7.92805C2.88104 7.58023 2.31179 7.17139 1.91162 6.72119V8.66637C1.91162 10.4088 5.15803 11.8811 9.00037 11.8811C12.8427 11.8811 16.0891 10.4088 16.0891 8.66637V6.72119C15.6906 7.17139 15.1197 7.58023 14.3927 7.92805ZM3.35458 8.94883C3.35043 8.97022 3.34406 8.99112 3.33557 9.01119C3.32721 9.03125 3.31694 9.05046 3.30489 9.06855C3.29288 9.08681 3.27903 9.1038 3.26354 9.11923C3.24777 9.13441 3.23057 9.14804 3.21219 9.15992C3.19402 9.17203 3.1747 9.18231 3.15449 9.1906C3.13437 9.19894 3.11349 9.2053 3.09213 9.20961C3.07018 9.21399 3.04783 9.21611 3.02544 9.21594C3.00305 9.21607 2.98071 9.21395 2.95874 9.20961C2.93829 9.20594 2.91821 9.20047 2.89872 9.19327C2.8583 9.17647 2.82159 9.15188 2.79067 9.1209C2.7599 9.08988 2.73544 9.05318 2.71864 9.01285C2.71015 8.99279 2.70378 8.97189 2.69963 8.95049C2.69517 8.92854 2.69294 8.9062 2.69296 8.8838C2.69302 8.86195 2.69525 8.84017 2.69963 8.81877C2.70366 8.79739 2.70992 8.77649 2.71831 8.75641C2.72659 8.73621 2.73687 8.71688 2.74899 8.69872C2.76122 8.68052 2.77518 8.66354 2.79067 8.64803C2.80611 8.63255 2.82309 8.61869 2.84136 8.60668C2.85945 8.59463 2.87866 8.58436 2.89872 8.576C2.91887 8.56775 2.93975 8.56139 2.96108 8.55699C3.01474 8.54665 3.07011 8.54954 3.1224 8.5654C3.17469 8.58126 3.22233 8.60962 3.26121 8.64803C3.27669 8.66346 3.29055 8.68045 3.30256 8.69872C3.31467 8.71688 3.32495 8.73621 3.33324 8.75641C3.34173 8.77648 3.3481 8.79738 3.35225 8.81877C3.35663 8.84017 3.35886 8.86195 3.35892 8.8838C3.35916 8.90561 3.35726 8.92739 3.35325 8.94883H3.35458ZM4.71184 9.84355C4.6964 9.85903 4.67942 9.87289 4.66115 9.8849C4.64298 9.89701 4.62366 9.90729 4.60346 9.91558C4.58333 9.92392 4.56245 9.93028 4.5411 9.93459C4.51915 9.93908 4.4968 9.94131 4.4744 9.94126C4.452 9.94128 4.42966 9.93905 4.40771 9.93459C4.38637 9.93024 4.36549 9.92387 4.34535 9.91558C4.32529 9.90722 4.30608 9.89694 4.28799 9.8849C4.25206 9.86067 4.22125 9.82963 4.19728 9.79353C4.18517 9.77536 4.17489 9.75604 4.1666 9.73583C4.15826 9.71571 4.1519 9.69483 4.14759 9.67347C4.14332 9.65206 4.1412 9.63028 4.14126 9.60845C4.14112 9.58606 4.14325 9.56371 4.14759 9.54175C4.15199 9.52042 4.15835 9.49955 4.1666 9.47939C4.17496 9.45933 4.18524 9.44012 4.19728 9.42203C4.20941 9.40376 4.22338 9.38677 4.23897 9.37134C4.26965 9.34071 4.30601 9.31636 4.34601 9.29965C4.36611 9.29131 4.387 9.28505 4.40837 9.28097C4.4514 9.2723 4.49573 9.2723 4.53876 9.28097C4.56014 9.28501 4.58104 9.29126 4.60112 9.29965C4.62132 9.30793 4.64065 9.31821 4.65881 9.33033C4.67701 9.34256 4.69399 9.35652 4.7095 9.37201C4.72499 9.38744 4.73884 9.40443 4.75085 9.4227C4.7629 9.44079 4.77317 9.46 4.78153 9.48006C4.78978 9.50021 4.79615 9.52109 4.80054 9.54242C4.81132 9.59607 4.80865 9.65156 4.79277 9.70393C4.77688 9.7563 4.74828 9.80392 4.7095 9.84255L4.71184 9.84355Z" fill="#40566D"/>
    <path d="M9.00037 6.91872C12.9154 6.91872 16.0891 5.47944 16.0891 3.70399C16.0891 1.92854 12.9154 0.489258 9.00037 0.489258C5.08536 0.489258 1.91162 1.92854 1.91162 3.70399C1.91162 5.47944 5.08536 6.91872 9.00037 6.91872Z" fill="#40566D"/>
    <path d="M14.3927 12.5433C12.9467 13.2343 11.0316 13.6151 9.00037 13.6151C6.96915 13.6151 5.05399 13.2343 3.60836 12.5433C2.88104 12.1945 2.31179 11.7866 1.91162 11.3364V13.2816C1.91162 15.024 5.15803 16.4963 9.00037 16.4963C12.8427 16.4963 16.0891 15.024 16.0891 13.2816V11.3364C15.6906 11.7866 15.1197 12.1945 14.3927 12.5433ZM3.35458 13.6364C3.35028 13.6578 3.34391 13.6787 3.33557 13.6988C3.32714 13.7189 3.31687 13.7382 3.30489 13.7565C3.2928 13.7747 3.27895 13.7917 3.26354 13.8072C3.2479 13.8227 3.23069 13.8365 3.21219 13.8485C3.19402 13.8606 3.1747 13.8709 3.15449 13.8792C3.13437 13.8875 3.11349 13.8939 3.09213 13.8982C3.07019 13.9027 3.04784 13.9049 3.02544 13.9049C2.93705 13.9046 2.85232 13.8695 2.78967 13.8072C2.77425 13.7916 2.7603 13.7746 2.74798 13.7565C2.73611 13.7382 2.72595 13.7189 2.71764 13.6988C2.70915 13.6787 2.70278 13.6578 2.69863 13.6364C2.69425 13.615 2.69202 13.5932 2.69196 13.5714C2.69194 13.549 2.69417 13.5267 2.69863 13.5047C2.70278 13.4833 2.70915 13.4624 2.71764 13.4423C2.72595 13.4222 2.73611 13.4029 2.74798 13.3846C2.7603 13.3665 2.77425 13.3495 2.78967 13.334C2.80553 13.3192 2.82285 13.3062 2.84136 13.2949C2.85945 13.2829 2.87866 13.2726 2.89872 13.2643C2.91887 13.256 2.93975 13.2497 2.96108 13.2453C3.00411 13.2366 3.04844 13.2366 3.09147 13.2453C3.11282 13.2496 3.1337 13.2559 3.15383 13.2643C3.17426 13.2725 3.19381 13.2828 3.21219 13.2949C3.23045 13.307 3.24744 13.3208 3.26288 13.3363C3.27829 13.3518 3.29214 13.3688 3.30423 13.387C3.31621 13.4052 3.32648 13.4245 3.33491 13.4447C3.34324 13.4648 3.34961 13.4857 3.35391 13.507C3.35837 13.529 3.36061 13.5513 3.36058 13.5737C3.36016 13.5948 3.3577 13.6158 3.35325 13.6364H3.35458ZM4.80154 14.3621C4.79724 14.3834 4.79087 14.4043 4.78254 14.4244C4.77425 14.4446 4.76397 14.464 4.75186 14.4821C4.72771 14.5187 4.6964 14.55 4.65982 14.5742C4.64165 14.5863 4.62232 14.5966 4.60212 14.6048C4.58205 14.6133 4.56115 14.6197 4.53976 14.6239C4.51782 14.6283 4.49547 14.6306 4.47307 14.6305C4.45067 14.6305 4.42832 14.6283 4.40637 14.6239C4.385 14.6196 4.36411 14.6132 4.34401 14.6048C4.32395 14.5965 4.30474 14.5862 4.28665 14.5742C4.26839 14.5622 4.2514 14.5483 4.23596 14.5328C4.22047 14.5173 4.20651 14.5003 4.19428 14.4821C4.18216 14.464 4.17189 14.4446 4.1636 14.4244C4.15526 14.4043 4.1489 14.3834 4.14459 14.3621C4.13614 14.3191 4.13614 14.275 4.14459 14.232C4.1489 14.2107 4.15526 14.1898 4.1636 14.1697C4.17189 14.1495 4.18216 14.1301 4.19428 14.112C4.20651 14.0938 4.22047 14.0768 4.23596 14.0613C4.2514 14.0458 4.26839 14.0319 4.28665 14.0199C4.30474 14.0079 4.32395 13.9976 4.34401 13.9892C4.40497 13.964 4.47205 13.9574 4.53676 13.9702C4.55815 13.9744 4.57905 13.9808 4.59912 13.9892C4.61938 13.9974 4.63872 14.0077 4.65681 14.0199C4.6934 14.0441 4.72471 14.0754 4.74885 14.112C4.76097 14.1301 4.77125 14.1495 4.77953 14.1697C4.78787 14.1898 4.79424 14.2107 4.79854 14.232C4.80743 14.2749 4.80743 14.3192 4.79854 14.3621H4.80154Z" fill="#40566D"/>
  </g>
  <defs>
    <clipPath id="clip0_851_482">
      <rect width="17.0741" height="16.007" fill="white" transform="translate(0.462891 0.489258)"/>
    </clipPath>
  </defs>
</svg>