<svg xmlns="http://www.w3.org/2000/svg" width="4" height="12" viewBox="0 0 4 12" fill="none">
  <path d="M1.99984 3.33317C2.73317 3.33317 3.33317 2.73317 3.33317 1.99984C3.33317 1.2665 2.73317 0.666504 1.99984 0.666504C1.2665 0.666504 0.666504 1.2665 0.666504 1.99984C0.666504 2.73317 1.2665 3.33317 1.99984 3.33317ZM1.99984 4.6665C1.2665 4.6665 0.666504 5.2665 0.666504 5.99984C0.666504 6.73317 1.2665 7.33317 1.99984 7.33317C2.73317 7.33317 3.33317 6.73317 3.33317 5.99984C3.33317 5.2665 2.73317 4.6665 1.99984 4.6665ZM1.99984 8.6665C1.2665 8.6665 0.666504 9.2665 0.666504 9.99984C0.666504 10.7332 1.2665 11.3332 1.99984 11.3332C2.73317 11.3332 3.33317 10.7332 3.33317 9.99984C3.33317 9.2665 2.73317 8.6665 1.99984 8.6665Z" fill="#58728D"/>
</svg>