<svg width="24" height="24" viewBox="0 0 24 24" fill="none" xmlns="http://www.w3.org/2000/svg">
<path d="M11.9998 9.33464C12.7332 9.33464 13.3332 8.73464 13.3332 8.0013C13.3332 7.26797 12.7332 6.66797 11.9998 6.66797C11.2665 6.66797 10.6665 7.26797 10.6665 8.0013C10.6665 8.73464 11.2665 9.33464 11.9998 9.33464ZM11.9998 10.668C11.2665 10.668 10.6665 11.268 10.6665 12.0013C10.6665 12.7346 11.2665 13.3346 11.9998 13.3346C12.7332 13.3346 13.3332 12.7346 13.3332 12.0013C13.3332 11.268 12.7332 10.668 11.9998 10.668ZM11.9998 14.668C11.2665 14.668 10.6665 15.268 10.6665 16.0013C10.6665 16.7346 11.2665 17.3346 11.9998 17.3346C12.7332 17.3346 13.3332 16.7346 13.3332 16.0013C13.3332 15.268 12.7332 14.668 11.9998 14.668Z" fill="#58728D"/>
</svg>
