<svg width="14" height="14" viewBox="0 0 14 14" fill="none" xmlns="http://www.w3.org/2000/svg">
<path d="M7.55594 4.22211H6.44482V6.44434H4.2226V7.55545H6.44482V9.77767H7.55594V7.55545H9.77816V6.44434H7.55594V4.22211ZM7.00038 1.44434C3.93927 1.44434 1.44482 3.93878 1.44482 6.99989C1.44482 10.061 3.93927 12.5554 7.00038 12.5554C10.0615 12.5554 12.5559 10.061 12.5559 6.99989C12.5559 3.93878 10.0615 1.44434 7.00038 1.44434ZM7.00038 11.4443C4.55038 11.4443 2.55594 9.44989 2.55594 6.99989C2.55594 4.54989 4.55038 2.55545 7.00038 2.55545C9.45038 2.55545 11.4448 4.54989 11.4448 6.99989C11.4448 9.44989 9.45038 11.4443 7.00038 11.4443Z" fill="#243547"/>
</svg>
