<svg xmlns="http://www.w3.org/2000/svg" width="16" height="18" viewBox="0 0 16 18" fill="none">
  <path d="M3.71401 0.25C3.12472 0.25 2.64258 0.742187 2.64258 1.34375V16.6562C2.64258 17.2578 3.12472 17.75 3.71401 17.75H14.4283C15.0176 17.75 15.4997 17.2578 15.4997 16.6562V4.625L11.214 0.25H3.71401Z" fill="#CBD5E2"/>
  <path d="M12.2858 4.625H15.5001L11.2144 0.25V3.53125C11.2144 4.13281 11.6965 4.625 12.2858 4.625Z" fill="#90A5BB"/>
  <path d="M15.4999 7.90625L12.2856 4.625H15.4999V7.90625Z" fill="#CBD5E2"/>
  <path d="M13.3571 14.4688C13.3571 14.7695 13.1161 15.0156 12.8214 15.0156H1.03571C0.741071 15.0156 0.5 14.7695 0.5 14.4688V9C0.5 8.69922 0.741071 8.45312 1.03571 8.45312H12.8214C13.1161 8.45312 13.3571 8.69922 13.3571 9V14.4688Z" fill="#F15642"/>
  <path d="M2.83545 10.6114C2.83545 10.4671 2.94688 10.3096 3.12634 10.3096H4.11581C4.67295 10.3096 5.17438 10.6902 5.17438 11.4197C5.17438 12.111 4.67295 12.496 4.11581 12.496H3.40063V13.0735C3.40063 13.266 3.28063 13.3748 3.12634 13.3748C2.98491 13.3748 2.83545 13.266 2.83545 13.0735V10.6114ZM3.40063 10.8603V11.9496H4.11581C4.40295 11.9496 4.63009 11.691 4.63009 11.4197C4.63009 11.114 4.40295 10.8603 4.11581 10.8603H3.40063ZM6.01331 13.3748C5.87188 13.3748 5.71759 13.2961 5.71759 13.1041V10.6202C5.71759 10.4632 5.87188 10.3489 6.01331 10.3489H6.9942C8.9517 10.3489 8.90884 13.3748 7.03277 13.3748H6.01331ZM6.28331 10.8827V12.8416H6.9942C8.15081 12.8416 8.20224 10.8827 6.9942 10.8827H6.28331ZM9.60313 10.9177V11.6128H10.6954C10.8497 11.6128 11.004 11.7703 11.004 11.9229C11.004 12.0672 10.8497 12.1854 10.6954 12.1854H9.60313V13.1036C9.60313 13.2567 9.49652 13.3743 9.34652 13.3743C9.15795 13.3743 9.04277 13.2567 9.04277 13.1036V10.6196C9.04277 10.4627 9.15849 10.3484 9.34652 10.3484H10.8503C11.0388 10.3484 11.1503 10.4627 11.1503 10.6196C11.1503 10.7596 11.0388 10.9171 10.8503 10.9171H9.60313V10.9177Z" fill="white"/>
  <path d="M12.8212 15.0156H2.64258V15.5625H12.8212C13.1158 15.5625 13.3569 15.3164 13.3569 15.0156V14.4688C13.3569 14.7695 13.1158 15.0156 12.8212 15.0156Z" fill="#CAD1D8"/>
</svg>