<svg xmlns="http://www.w3.org/2000/svg" width="20" height="21" viewBox="0 0 20 21" fill="none">
  <path d="M9.9915 2.1665C5.3915 2.1665 1.6665 5.89984 1.6665 10.4998C1.6665 15.0998 5.3915 18.8332 9.9915 18.8332C14.5998 18.8332 18.3332 15.0998 18.3332 10.4998C18.3332 5.89984 14.5998 2.1665 9.9915 2.1665ZM9.99984 17.1665C6.3165 17.1665 3.33317 14.1832 3.33317 10.4998C3.33317 6.8165 6.3165 3.83317 9.99984 3.83317C13.6832 3.83317 16.6665 6.8165 16.6665 10.4998C16.6665 14.1832 13.6832 17.1665 9.99984 17.1665ZM10.4165 6.33317H9.1665V11.3332L13.5415 13.9582L14.1665 12.9332L10.4165 10.7082V6.33317Z" fill="#40566D"/>
</svg>