<svg xmlns="http://www.w3.org/2000/svg" width="20" height="21" viewBox="0 0 20 21" fill="none">
  <path d="M15.8333 3.83317H15V2.1665H13.3333V3.83317H6.66667V2.1665H5V3.83317H4.16667C3.24167 3.83317 2.50833 4.58317 2.50833 5.49984L2.5 17.1665C2.5 18.0832 3.24167 18.8332 4.16667 18.8332H15.8333C16.75 18.8332 17.5 18.0832 17.5 17.1665V5.49984C17.5 4.58317 16.75 3.83317 15.8333 3.83317ZM15.8333 17.1665H4.16667V8.83317H15.8333V17.1665ZM15.8333 7.1665H4.16667V5.49984H15.8333V7.1665ZM7.5 12.1665H5.83333V10.4998H7.5V12.1665ZM10.8333 12.1665H9.16667V10.4998H10.8333V12.1665ZM14.1667 12.1665H12.5V10.4998H14.1667V12.1665ZM7.5 15.4998H5.83333V13.8332H7.5V15.4998ZM10.8333 15.4998H9.16667V13.8332H10.8333V15.4998ZM14.1667 15.4998H12.5V13.8332H14.1667V15.4998Z" fill="#40566D"/>
</svg>