<svg width="16" height="16" viewBox="0 0 16 16" fill="none" xmlns="http://www.w3.org/2000/svg">
<path d="M11.9998 8.66634C12.7332 8.66634 13.3332 9.26634 13.3332 9.99967C13.3332 10.733 12.7332 11.333 11.9998 11.333C11.2665 11.333 10.6665 10.733 10.6665 9.99967C10.6665 9.26634 11.2665 8.66634 11.9998 8.66634ZM6.6665 9.99967C6.6665 10.733 7.2665 11.333 7.99984 11.333C8.73317 11.333 9.33317 10.733 9.33317 9.99967C9.33317 9.26634 8.73317 8.66634 7.99984 8.66634C7.2665 8.66634 6.6665 9.26634 6.6665 9.99967ZM2.6665 9.99967C2.6665 10.733 3.2665 11.333 3.99984 11.333C4.73317 11.333 5.33317 10.733 5.33317 9.99967C5.33317 9.26634 4.73317 8.66634 3.99984 8.66634C3.2665 8.66634 2.6665 9.26634 2.6665 9.99967ZM5.33317 5.99967C5.33317 5.26634 4.73317 4.66634 3.99984 4.66634C3.2665 4.66634 2.6665 5.26634 2.6665 5.99967C2.6665 6.73301 3.2665 7.33301 3.99984 7.33301C4.73317 7.33301 5.33317 6.73301 5.33317 5.99967ZM6.6665 5.99967C6.6665 6.73301 7.2665 7.33301 7.99984 7.33301C8.73317 7.33301 9.33317 6.73301 9.33317 5.99967C9.33317 5.26634 8.73317 4.66634 7.99984 4.66634C7.2665 4.66634 6.6665 5.26634 6.6665 5.99967ZM10.6665 5.99967C10.6665 6.73301 11.2665 7.33301 11.9998 7.33301C12.7332 7.33301 13.3332 6.73301 13.3332 5.99967C13.3332 5.26634 12.7332 4.66634 11.9998 4.66634C11.2665 4.66634 10.6665 5.26634 10.6665 5.99967Z" fill="#40566D"/>
</svg>
