<svg xmlns="http://www.w3.org/2000/svg" width="24" height="24" viewBox="0 0 24 24" fill="none">
  <path d="M14 2H6C4.9 2 4.01 2.9 4.01 4L4 20C4 21.1 4.89 22 5.99 22H18C19.1 22 20 21.1 20 20V8L14 2ZM6 20V4H13V9H18V20H6Z" fill="#40566D"/>
  <path d="M10 14.9908C10 14.694 10.385 14.5775 10.5496 14.8244L11.7504 16.6256C11.8691 16.8037 12.1309 16.8037 12.2496 16.6256L13.4504 14.8244C13.615 14.5775 14 14.694 14 14.9908V17.7C14 17.8657 14.1343 18 14.3 18H15.7C15.8657 18 16 17.8657 16 17.7V11.3C16 11.1343 15.8657 11 15.7 11H14.1606C14.0602 11 13.9666 11.0501 13.9109 11.1336L12.2496 13.6256C12.1309 13.8037 11.8691 13.8037 11.7504 13.6256L10.0891 11.1336C10.0334 11.0501 9.93975 11 9.83944 11H8.3C8.13431 11 8 11.1343 8 11.3V17.7C8 17.8657 8.13431 18 8.3 18H9.7C9.86569 18 10 17.8657 10 17.7V14.9908Z" fill="#40566D"/>
</svg>