<svg width="144" height="96" viewBox="0 0 144 96" fill="none" xmlns="http://www.w3.org/2000/svg">
<g clip-path="url(#clip0_546_45389)">
<path d="M80.6305 15.0625H61.9151C45.5739 15.0625 32.3267 28.3097 32.3267 44.6509C32.3267 60.9921 45.5739 74.2393 61.9151 74.2393H80.6305C96.9718 74.2393 110.219 60.9921 110.219 44.6509C110.219 28.3097 96.9718 15.0625 80.6305 15.0625Z" fill="url(#paint0_linear_546_45389)"/>
<path fill-rule="evenodd" clip-rule="evenodd" d="M86.3471 52.2308C86.3471 39.9703 76.408 30.0312 64.1476 30.0312H45.0794C32.8189 30.0313 22.8799 39.9703 22.8799 52.2308C22.8799 64.4912 32.8189 74.4304 45.0794 74.4304H51.4586L61.4578 82.466C62.1981 83.0609 63.2976 82.534 63.2976 81.5842V74.4304H64.1476C76.408 74.4304 86.3471 64.4912 86.3471 52.2308Z" fill="#666AF6"/>
<path fill-rule="evenodd" clip-rule="evenodd" d="M86.3471 52.2308C86.3471 39.9703 76.408 30.0312 64.1476 30.0312H45.0794C32.8189 30.0313 22.8799 39.9703 22.8799 52.2308C22.8799 64.4912 32.8189 74.4304 45.0794 74.4304H51.4586L61.4578 82.466C62.1981 83.0609 63.2976 82.534 63.2976 81.5842V74.4304H64.1476C76.408 74.4304 86.3471 64.4912 86.3471 52.2308Z" fill="url(#paint1_linear_546_45389)"/>
<path d="M63.8989 42.7539H40.4283C39.8226 42.7539 39.3315 43.245 39.3315 43.8507C39.3315 44.4564 39.8226 44.9475 40.4283 44.9475H63.8989C64.5047 44.9475 64.9957 44.4564 64.9957 43.8507C64.9957 43.245 64.5047 42.7539 63.8989 42.7539Z" fill="white"/>
<path d="M51.8346 48.457H40.4283C39.8226 48.457 39.3315 48.9481 39.3315 49.5538C39.3315 50.1596 39.8226 50.6506 40.4283 50.6506H51.8346C52.4403 50.6506 52.9314 50.1596 52.9314 49.5538C52.9314 48.9481 52.4403 48.457 51.8346 48.457Z" fill="white"/>
<path d="M59.0731 54.1602H40.4283C39.8226 54.1602 39.3315 54.6512 39.3315 55.257C39.3315 55.8627 39.8226 56.3538 40.4283 56.3538H59.0731C59.6789 56.3538 60.1699 55.8627 60.1699 55.257C60.1699 54.6512 59.6789 54.1602 59.0731 54.1602Z" fill="white"/>
<path d="M66.7506 59.8633H40.4283C39.8226 59.8633 39.3315 60.3543 39.3315 60.9601C39.3315 61.5658 39.8226 62.0569 40.4283 62.0569H66.7506C67.3563 62.0569 67.8474 61.5658 67.8474 60.9601C67.8474 60.3543 67.3563 59.8633 66.7506 59.8633Z" fill="white"/>
<path fill-rule="evenodd" clip-rule="evenodd" d="M89.3652 61.7841C89.3652 55.6685 94.323 50.7109 100.439 50.7109H109.95C116.065 50.7109 121.023 55.6685 121.023 61.7841C121.023 67.8997 116.065 72.8573 109.95 72.8573H106.768L101.78 76.8655C101.411 77.1623 100.862 76.8994 100.862 76.4257V72.8573H100.439C94.323 72.8573 89.3652 67.8997 89.3652 61.7841Z" fill="#666AF6"/>
<path fill-rule="evenodd" clip-rule="evenodd" d="M89.3652 61.7841C89.3652 55.6685 94.323 50.7109 100.439 50.7109H109.95C116.065 50.7109 121.023 55.6685 121.023 61.7841C121.023 67.8997 116.065 72.8573 109.95 72.8573H106.768L101.78 76.8655C101.411 77.1623 100.862 76.8994 100.862 76.4257V72.8573H100.439C94.323 72.8573 89.3652 67.8997 89.3652 61.7841Z" fill="url(#paint2_linear_546_45389)"/>
<path d="M110.847 58.7305H99.1398C98.8377 58.7305 98.5928 58.9754 98.5928 59.2775C98.5928 59.5796 98.8377 59.8245 99.1398 59.8245H110.847C111.149 59.8245 111.394 59.5796 111.394 59.2775C111.394 58.9754 111.149 58.7305 110.847 58.7305Z" fill="white"/>
<path d="M104.829 61.5781H99.1398C98.8377 61.5781 98.5928 61.823 98.5928 62.1252C98.5928 62.4273 98.8377 62.6722 99.1398 62.6722H104.829C105.132 62.6722 105.376 62.4273 105.376 62.1252C105.376 61.823 105.132 61.5781 104.829 61.5781Z" fill="white"/>
<path d="M108.44 64.4219H99.1398C98.8377 64.4219 98.5928 64.6668 98.5928 64.9689C98.5928 65.271 98.8377 65.516 99.1398 65.516H108.44C108.742 65.516 108.987 65.271 108.987 64.9689C108.987 64.6668 108.742 64.4219 108.44 64.4219Z" fill="white"/>
<path fill-rule="evenodd" clip-rule="evenodd" d="M119.829 27.0542C119.829 19.4476 113.662 13.2812 106.056 13.2812H94.2256C86.6189 13.2812 80.4526 19.4476 80.4526 27.0542C80.4526 34.6608 86.6189 40.8272 94.2256 40.8272H98.1832L104.387 45.8126C104.846 46.1817 105.528 45.8547 105.528 45.2656V40.8272H106.056C113.662 40.8272 119.829 34.6608 119.829 27.0542Z" fill="#666AF6"/>
<path fill-rule="evenodd" clip-rule="evenodd" d="M119.829 27.0542C119.829 19.4476 113.662 13.2812 106.056 13.2812H94.2256C86.6189 13.2812 80.4526 19.4476 80.4526 27.0542C80.4526 34.6608 86.6189 40.8272 94.2256 40.8272H98.1832L104.387 45.8126C104.846 46.1817 105.528 45.8547 105.528 45.2656V40.8272H106.056C113.662 40.8272 119.829 34.6608 119.829 27.0542Z" fill="url(#paint3_linear_546_45389)"/>
<path d="M100.017 22.0547H91.48C91.0267 22.0547 90.6592 22.4222 90.6592 22.8755V22.8756C90.6592 23.329 91.0267 23.6964 91.48 23.6964H100.017C100.47 23.6964 100.838 23.329 100.838 22.8756V22.8755C100.838 22.4222 100.47 22.0547 100.017 22.0547Z" fill="white"/>
<path d="M105.435 26.3242H91.48C91.0267 26.3242 90.6592 26.6917 90.6592 27.145V27.1452C90.6592 27.5985 91.0267 27.966 91.48 27.966H105.435C105.888 27.966 106.256 27.5985 106.256 27.1452V27.145C106.256 26.6917 105.888 26.3242 105.435 26.3242Z" fill="white"/>
<path d="M111.181 30.5938H91.48C91.0267 30.5938 90.6592 30.9612 90.6592 31.4146V31.4147C90.6592 31.868 91.0267 32.2355 91.48 32.2355H111.181C111.634 32.2355 112.002 31.868 112.002 31.4147V31.4146C112.002 30.9612 111.634 30.5938 111.181 30.5938Z" fill="white"/>
<path d="M50.4762 24.2368C49.6076 23.3682 49.6076 21.9599 50.4762 21.0913C51.3448 20.2228 52.753 20.2228 53.6216 21.0913C54.4902 21.9599 54.4902 23.3682 53.6216 24.2368C52.753 25.1054 51.3448 25.1054 50.4762 24.2368Z" fill="#E4E5F2"/>
<path d="M70.6771 25.8383C70.2681 25.4292 70.2681 24.7661 70.6771 24.3571C71.0862 23.948 71.7493 23.948 72.1583 24.3571C72.5673 24.7661 72.5673 25.4292 72.1583 25.8383C71.7493 26.2473 71.0862 26.2473 70.6771 25.8383Z" fill="#E4E5F2"/>
<path d="M110.562 45.921C111.488 45.9829 112.497 45.2563 112.497 45.2563C112.497 45.2563 111.605 44.2333 110.679 44.1714C109.753 44.1093 108.975 44.4506 108.943 44.9341C108.911 45.4174 109.635 45.8592 110.562 45.921Z" fill="#E4E5F2"/>
<path d="M90.8848 44.4996C90.0772 44.4838 89.4096 45.1258 89.3938 45.9335C89.378 46.7411 90.0199 47.4087 90.8276 47.4245C91.6353 47.4403 92.3029 46.7984 92.3187 45.9907C92.3345 45.183 91.6925 44.5154 90.8848 44.4996Z" fill="#E4E5F2"/>
<path d="M83.2198 72.3082C82.4121 72.2924 81.7445 72.9344 81.7287 73.742C81.7129 74.5497 82.3549 75.2173 83.1626 75.2331C83.9702 75.2489 84.6378 74.607 84.6536 73.7993C84.6694 72.9916 84.0275 72.324 83.2198 72.3082Z" fill="#E4E5F2"/>
</g>
<defs>
<linearGradient id="paint0_linear_546_45389" x1="72.9337" y1="107.417" x2="71.5475" y2="-49.3207" gradientUnits="userSpaceOnUse">
<stop stop-color="white"/>
<stop offset="1" stop-color="#F4F5FF"/>
</linearGradient>
<linearGradient id="paint1_linear_546_45389" x1="54.6135" y1="28.8361" x2="39.7825" y2="103.13" gradientUnits="userSpaceOnUse">
<stop stop-color="#E3EAF3"/>
<stop offset="1" stop-color="#768EA7"/>
</linearGradient>
<linearGradient id="paint2_linear_546_45389" x1="106.113" y1="46.415" x2="98.921" y2="82.4431" gradientUnits="userSpaceOnUse">
<stop stop-color="#E3EAF3"/>
<stop offset="1" stop-color="#768EA7"/>
</linearGradient>
<linearGradient id="paint3_linear_546_45389" x1="101.284" y1="7.93793" x2="92.3382" y2="52.75" gradientUnits="userSpaceOnUse">
<stop stop-color="#E3EAF3"/>
<stop offset="1" stop-color="#768EA7"/>
</linearGradient>
<clipPath id="clip0_546_45389">
<rect width="144" height="96" fill="white"/>
</clipPath>
</defs>
</svg>
