<svg xmlns="http://www.w3.org/2000/svg" width="24" height="28" viewBox="0 0 24 28" fill="none">
  <path d="M5.14275 0C4.1999 0 3.42847 0.7875 3.42847 1.75V26.25C3.42847 27.2125 4.1999 28 5.14275 28H22.2856C23.2285 28 23.9999 27.2125 23.9999 26.25V7L17.1428 0H5.14275Z" fill="#E3EAF3"/>
  <path d="M18.8569 7H23.9997L17.1426 0V5.25C17.1426 6.2125 17.914 7 18.8569 7Z" fill="#90A5BB"/>
  <path d="M23.9998 12.25L18.8569 7H23.9998V12.25Z" fill="#CBD5E2"/>
  <path d="M20.5714 22.75C20.5714 23.2312 20.1857 23.625 19.7143 23.625H0.857143C0.385714 23.625 0 23.2312 0 22.75V14C0 13.5187 0.385714 13.125 0.857143 13.125H19.7143C20.1857 13.125 20.5714 13.5187 20.5714 14V22.75Z" fill="#F15642"/>
  <path d="M3.73657 16.5787C3.73657 16.3477 3.91486 16.0957 4.202 16.0957H5.78514C6.67657 16.0957 7.47886 16.7047 7.47886 17.872C7.47886 18.978 6.67657 19.594 5.78514 19.594H4.64086V20.518C4.64086 20.826 4.44886 21.0001 4.202 21.0001C3.97571 21.0001 3.73657 20.826 3.73657 20.518V16.5787ZM4.64086 16.9768V18.7198H5.78514C6.24457 18.7198 6.608 18.306 6.608 17.872C6.608 17.3828 6.24457 16.9768 5.78514 16.9768H4.64086ZM8.82114 21.0001C8.59486 21.0001 8.348 20.8741 8.348 20.567V16.5927C8.348 16.3416 8.59486 16.1587 8.82114 16.1587H10.3906C13.5226 16.1587 13.454 21.0001 10.4523 21.0001H8.82114ZM9.25314 17.0127V20.147H10.3906C12.2411 20.147 12.3234 17.0127 10.3906 17.0127H9.25314ZM14.5649 17.0687V18.1808H16.3126C16.5594 18.1808 16.8063 18.4328 16.8063 18.677C16.8063 18.908 16.5594 19.097 16.3126 19.097H14.5649V20.5661C14.5649 20.8111 14.3943 20.9992 14.1543 20.9992C13.8526 20.9992 13.6683 20.8111 13.6683 20.5661V16.5918C13.6683 16.3407 13.8534 16.1578 14.1543 16.1578H16.5603C16.862 16.1578 17.0403 16.3407 17.0403 16.5918C17.0403 16.8158 16.862 17.0678 16.5603 17.0678H14.5649V17.0687Z" fill="white"/>
  <path d="M19.7142 23.625H3.42847V24.5H19.7142C20.1856 24.5 20.5713 24.1063 20.5713 23.625V22.75C20.5713 23.2313 20.1856 23.625 19.7142 23.625Z" fill="#CAD1D8"/>
</svg>