<svg width="24" height="24" viewBox="0 0 24 24" fill="none" xmlns="http://www.w3.org/2000/svg">
<path d="M16.0002 18.9998C16.2835 18.9998 16.521 18.904 16.7127 18.7123C16.9044 18.5206 17.0002 18.2831 17.0002 17.9998C17.0002 17.7165 16.9044 17.479 16.7127 17.2873C16.521 17.0956 16.2835 16.9998 16.0002 16.9998H9.9002C8.85019 16.9998 7.9377 16.6665 7.16269 15.9998C6.3877 15.3331 6.0002 14.4998 6.0002 13.4998C6.0002 12.4998 6.3877 11.6665 7.16269 10.9998C7.9377 10.3331 8.85019 9.9998 9.9002 9.9998H16.2002L14.3002 11.8998C14.1169 12.0831 14.0252 12.3165 14.0252 12.5998C14.0252 12.8831 14.1169 13.1165 14.3002 13.2998C14.4835 13.4831 14.7169 13.5748 15.0002 13.5748C15.2835 13.5748 15.5169 13.4831 15.7002 13.2998L19.3002 9.6998C19.4002 9.5998 19.471 9.49147 19.5127 9.3748C19.5544 9.25814 19.5752 9.13314 19.5752 8.9998C19.5752 8.86647 19.5544 8.74147 19.5127 8.6248C19.471 8.50814 19.4002 8.3998 19.3002 8.2998L15.7002 4.6998C15.5169 4.51647 15.2835 4.4248 15.0002 4.4248C14.7169 4.4248 14.4835 4.51647 14.3002 4.6998C14.1169 4.88314 14.0252 5.11647 14.0252 5.3998C14.0252 5.68314 14.1169 5.91647 14.3002 6.0998L16.2002 7.9998H9.9002C8.28353 7.9998 6.89603 8.5248 5.73769 9.5748C4.57936 10.6248 4.0002 11.9331 4.0002 13.4998C4.0002 15.0665 4.57936 16.3748 5.73769 17.4248C6.89603 18.4748 8.28353 18.9998 9.9002 18.9998H16.0002Z" fill="#192839"/>
</svg>
