<svg xmlns="http://www.w3.org/2000/svg" width="20" height="20" viewBox="0 0 20 20" fill="none">
  <path d="M14.7015 5.2928C13.3431 3.93447 11.4181 3.15113 9.30147 3.3678C6.24314 3.67613 3.72647 6.15947 3.38481 9.2178C2.92647 13.2595 6.05147 16.6678 9.99314 16.6678C12.6515 16.6678 14.9348 15.1095 16.0015 12.8678C16.2681 12.3095 15.8681 11.6678 15.2515 11.6678C14.9431 11.6678 14.6515 11.8345 14.5181 12.1095C13.5765 14.1345 11.3181 15.4178 8.85147 14.8678C7.00147 14.4595 5.50981 12.9511 5.11814 11.1011C4.41814 7.8678 6.87647 5.00113 9.99314 5.00113C11.3765 5.00113 12.6098 5.57613 13.5098 6.48447L12.2515 7.7428C11.7265 8.2678 12.0931 9.1678 12.8348 9.1678H15.8265C16.2848 9.1678 16.6598 8.7928 16.6598 8.33447V5.3428C16.6598 4.60113 15.7598 4.22613 15.2348 4.75113L14.7015 5.2928Z" fill="#CBD5E2"/>
</svg>