<svg width="22" height="22" viewBox="0 0 22 22" fill="none" xmlns="http://www.w3.org/2000/svg">
<path d="M11 3C15.4183 3 19 6.58172 19 11C19 15.4183 15.4183 19 11 19C6.58172 19 3 15.4183 3 11C3 6.58172 6.58172 3 11 3ZM14.3398 8.93164C14.0824 8.66145 13.6551 8.65088 13.3848 8.9082L9.93652 12.1904L8.87793 10.9814C8.63204 10.7006 8.20469 10.6721 7.92383 10.918C7.64323 11.1638 7.61468 11.5913 7.86035 11.8721L9.38379 13.6113C9.50503 13.7497 9.67755 13.8334 9.86133 13.8418C10.0451 13.8501 10.2251 13.7821 10.3584 13.6553L14.3164 9.88672C14.5868 9.62933 14.5972 9.20201 14.3398 8.93164Z" fill="#167B59"/>
</svg>
